<svg id="4d027c77-67a8-493e-bdcb-9e609c794e78" data-name="Capa 1" xmlns="http://www.w3.org/2000/svg" viewBox="0 0 194.24 131.01"><title>icon</title><path d="M145.29,88.12a3.12,3.12,0,0,1,.78,4.36L130.55,114.8a3.13,3.13,0,0,1-4.37.78l-12-8.36a3.13,3.13,0,0,1-.78-4.37l15.53-22.31a3.12,3.12,0,0,1,4.36-.78ZM131.4,108.07l11.65-16.74a.75.75,0,0,0,.13-.58.79.79,0,0,0-.33-.51l-10.73-7.46a.71.71,0,0,0-.58-.13A.82.82,0,0,0,131,83L119.39,99.71a.74.74,0,0,0-.13.59.77.77,0,0,0,.32.5l10.73,7.47a.82.82,0,0,0,.59.13A.75.75,0,0,0,131.4,108.07Zm-10,1.61a2,2,0,0,0,1.56.33,2.08,2.08,0,1,0-.74-4.09,2,2,0,0,0-1.68,2.42A2,2,0,0,0,121.37,109.68Z" transform="translate(-0.97 -32.16)" style="fill:#2b357a"/><path d="M128,128.4a15.3,15.3,0,0,1-8.77-2.77l-12-8.36a15.36,15.36,0,0,1-3.84-21.41l15.52-22.32a15.38,15.38,0,0,1,21.42-3.84l12,8.36a15.39,15.39,0,0,1,3.85,21.42L140.6,121.79a15.26,15.26,0,0,1-9.91,6.36A14.94,14.94,0,0,1,128,128.4Z" transform="translate(-0.97 -32.16)" style="fill:#f0f0f0"/><path d="M129.73,97.67" transform="translate(-0.97 -32.16)" style="fill:#2b357a;stroke:#f0f0f0;stroke-miterlimit:10;stroke-width:21px"/><path d="M154.31,102.35l-.25,0a1.89,1.89,0,0,1-1.63-2.11,23.56,23.56,0,0,0-34.31-23.87A1.89,1.89,0,0,1,116.37,73a27.34,27.34,0,0,1,39.81,27.7A1.89,1.89,0,0,1,154.31,102.35Z" transform="translate(-0.97 -32.16)" style="fill:#2b357a"/><path d="M154.31,114.6a13.34,13.34,0,0,1-1.79-.12,14.15,14.15,0,0,1-12.24-15.81A11.31,11.31,0,0,0,123.8,87.2a14.14,14.14,0,1,1-13.11-25.05,39.58,39.58,0,0,1,57.64,40.1A14.17,14.17,0,0,1,154.31,114.6ZM112.45,65.49h0Z" transform="translate(-0.97 -32.16)" style="fill:#f0f0f0"/><path d="M129.05,124.56A27.36,27.36,0,0,1,102,93.72a1.89,1.89,0,1,1,3.75.48A23.56,23.56,0,0,0,140,118.07a1.89,1.89,0,0,1,1.75,3.35A27.37,27.37,0,0,1,129.05,124.56Z" transform="translate(-0.97 -32.16)" style="fill:#2b357a"/><path d="M129.05,136.8A39.61,39.61,0,0,1,89.8,92.16a14.14,14.14,0,0,1,28.05,3.6,11.31,11.31,0,0,0,16.48,11.46,14.14,14.14,0,0,1,13.11,25.05A39.76,39.76,0,0,1,129.05,136.8Zm16.65-7.89,0,0ZM93.55,92.65v0Z" transform="translate(-0.97 -32.16)" style="fill:#f0f0f0"/><path d="M166.44,103.91h-.24a1.89,1.89,0,0,1-1.63-2.12,35.8,35.8,0,0,0-52.14-36.27,1.89,1.89,0,0,1-1.75-3.35,39.58,39.58,0,0,1,57.64,40.1A1.9,1.9,0,0,1,166.44,103.91Z" transform="translate(-0.97 -32.16)" style="fill:#2b357a"/><path d="M166.44,116.16a15,15,0,0,1-1.76-.11,14.17,14.17,0,0,1-12.26-15.82,23.56,23.56,0,0,0-34.31-23.87,14.13,14.13,0,0,1-19.08-6,14.17,14.17,0,0,1,6-19.08,51.82,51.82,0,0,1,75.46,52.5A14.16,14.16,0,0,1,166.44,116.16Zm-59.68-61.5h0Z" transform="translate(-0.97 -32.16)" style="fill:#f0f0f0"/><path d="M129,136.8A39.6,39.6,0,0,1,89.81,92.15a1.89,1.89,0,0,1,3.75.48A35.8,35.8,0,0,0,145.7,128.9a1.89,1.89,0,0,1,1.75,3.35A39.66,39.66,0,0,1,129,136.8Z" transform="translate(-0.97 -32.16)" style="fill:#2b357a"/><path d="M129,149.05A51.85,51.85,0,0,1,77.67,90.6a14.13,14.13,0,0,1,28,3.59A23.55,23.55,0,0,0,140,118.05a14.14,14.14,0,1,1,13.1,25.06A52.14,52.14,0,0,1,129,149.05Zm22.35-9.3h0Z" transform="translate(-0.97 -32.16)" style="fill:#f0f0f0"/><path d="M180.65,106.12l-.24,0a1.89,1.89,0,0,1-1.64-2.11,49.44,49.44,0,0,0-72-50.11A1.89,1.89,0,1,1,105,50.53a53.23,53.23,0,0,1,77.52,53.94A1.89,1.89,0,0,1,180.65,106.12Z" transform="translate(-0.97 -32.16)" style="fill:#2b357a"/><path d="M180.65,118.36a13.29,13.29,0,0,1-1.78-.11,14.14,14.14,0,0,1-12.25-15.81,37.2,37.2,0,0,0-54.19-37.71A14.14,14.14,0,1,1,99.32,39.68,65.48,65.48,0,0,1,194.67,106,14.16,14.16,0,0,1,180.65,118.36ZM101.08,43l0,0Z" transform="translate(-0.97 -32.16)" style="fill:#f0f0f0"/><path d="M129.69,150.92a53.26,53.26,0,0,1-52.76-60,1.89,1.89,0,0,1,3.75.48,49.45,49.45,0,0,0,72,50.11,1.89,1.89,0,0,1,1.76,3.35A53.37,53.37,0,0,1,129.69,150.92Z" transform="translate(-0.97 -32.16)" style="fill:#2b357a"/><path d="M129.69,163.17A65.52,65.52,0,0,1,64.78,89.32a14.14,14.14,0,1,1,28.05,3.59A37.2,37.2,0,0,0,147,130.61a14.14,14.14,0,1,1,13.11,25A65.93,65.93,0,0,1,129.69,163.17Zm28.7-10.87h0Z" transform="translate(-0.97 -32.16)" style="fill:#f0f0f0"/><path d="M65.59,75.19h.65a1.5,1.5,0,0,1,1.51,1.5V122q0,13.32-7.35,21t-19.28,7.69a29.1,29.1,0,0,1-12.75-3,24.9,24.9,0,0,1-9.35-7.4,1.53,1.53,0,0,1-.29-.9h0a1.5,1.5,0,0,1,2.62-1,26.31,26.31,0,0,0,6.74,5.41,25.76,25.76,0,0,0,13,3.67q10.1,0,16.53-6.83T64.08,122v-2.55a1.51,1.51,0,0,0-2.69-.93,24.72,24.72,0,0,1-7.07,5.89,27.56,27.56,0,0,1-13.78,3.79,26.41,26.41,0,0,1-19.29-8,26.77,26.77,0,0,1,0-38.23,26.41,26.41,0,0,1,19.29-8,27.47,27.47,0,0,1,14,3.73,23.32,23.32,0,0,1,6.88,5.89,1.51,1.51,0,0,0,2.71-.92v-6A1.5,1.5,0,0,1,65.59,75.19Zm-48.7,25.94A23,23,0,0,0,24,118,22.9,22.9,0,0,0,40.71,125,22.32,22.32,0,0,0,57.3,118a24,24,0,0,0,0-33.64,22.36,22.36,0,0,0-16.59-7.06A22.94,22.94,0,0,0,24,84.31,23,23,0,0,0,16.89,101.13Z" transform="translate(-0.97 -32.16)" style="fill:#2b357a"/><path d="M41.12,163a41.44,41.44,0,0,1-18.06-4.2A37.11,37.11,0,0,1,9.23,147.69a13.74,13.74,0,0,1,2.84-19.31,39,39,0,0,1,.56-55A38.83,38.83,0,0,1,40.54,61.79a39.65,39.65,0,0,1,17,3.76,13.69,13.69,0,0,1,8.06-2.61h.65A13.77,13.77,0,0,1,80,76.69V122c0,12.09-3.61,22-10.74,29.47S52.35,163,41.12,163ZM40.71,89.5A10.74,10.74,0,0,0,32.61,93a11.33,11.33,0,0,0,0,16.32,10.75,10.75,0,0,0,8.1,3.48,10.08,10.08,0,0,0,7.83-3.37,11.73,11.73,0,0,0,0-16.54A10.11,10.11,0,0,0,40.71,89.5Z" transform="translate(-0.97 -32.16)" style="fill:#f0f0f0"/><path d="M145.29,88.11a3.13,3.13,0,0,1,.78,4.37l-15.52,22.31a3.12,3.12,0,0,1-4.37.79l-12-8.36a3.07,3.07,0,0,1-1.3-2,3,3,0,0,1,.52-2.35l15.53-22.31a3.11,3.11,0,0,1,4.36-.79Zm-13.88,20,11.64-16.74a.77.77,0,0,0,.13-.59.75.75,0,0,0-.33-.5l-10.73-7.46a.71.71,0,0,0-.58-.13A.74.74,0,0,0,131,83L119.39,99.71a.72.72,0,0,0-.13.58.77.77,0,0,0,.32.51l10.73,7.46a.8.8,0,0,0,1.1-.19Zm-10,1.61a2,2,0,0,0,1.56.33,2.09,2.09,0,0,0,.83-3.76,2,2,0,0,0-1.57-.33,2,2,0,0,0-1.68,2.41A2,2,0,0,0,121.37,109.68Z" transform="translate(-0.97 -32.16)" style="fill:#2b357a"/><path d="M129.73,97.67" transform="translate(-0.97 -32.16)" style="fill:#2b357a"/><path d="M154.31,102.35l-.25,0a1.89,1.89,0,0,1-1.63-2.11,23.56,23.56,0,0,0-34.31-23.87A1.89,1.89,0,0,1,116.37,73a27.33,27.33,0,0,1,39.81,27.7A1.89,1.89,0,0,1,154.31,102.35Z" transform="translate(-0.97 -32.16)" style="fill:#2b357a"/><path d="M129.05,124.55A27.34,27.34,0,0,1,102,93.72a1.89,1.89,0,1,1,3.75.47A23.56,23.56,0,0,0,140,118.07a1.89,1.89,0,1,1,1.75,3.34A27.25,27.25,0,0,1,129.05,124.55Z" transform="translate(-0.97 -32.16)" style="fill:#2b357a"/><path d="M166.44,103.91l-.24,0a1.88,1.88,0,0,1-1.63-2.11,35.8,35.8,0,0,0-52.14-36.27,1.89,1.89,0,0,1-1.75-3.35,39.58,39.58,0,0,1,57.64,40.1A1.9,1.9,0,0,1,166.44,103.91Z" transform="translate(-0.97 -32.16)" style="fill:#2b357a"/><path d="M129,136.8A39.6,39.6,0,0,1,89.82,92.15a1.89,1.89,0,0,1,3.75.48A35.79,35.79,0,0,0,145.7,128.9a1.89,1.89,0,0,1,1.75,3.35A39.66,39.66,0,0,1,129,136.8Z" transform="translate(-0.97 -32.16)" style="fill:#2b357a"/><path d="M180.65,106.11h-.24a1.89,1.89,0,0,1-1.64-2.12,49.44,49.44,0,0,0-72-50.1A1.89,1.89,0,1,1,105,50.53a53.22,53.22,0,0,1,77.52,53.93A1.88,1.88,0,0,1,180.65,106.11Z" transform="translate(-0.97 -32.16)" style="fill:#2b357a"/><path d="M129.69,150.92a53.27,53.27,0,0,1-52.76-60,1.89,1.89,0,1,1,3.75.48,49.44,49.44,0,0,0,72,50.1,1.89,1.89,0,0,1,1.76,3.35A53.39,53.39,0,0,1,129.69,150.92Z" transform="translate(-0.97 -32.16)" style="fill:#2b357a"/><path d="M65.59,75.18h.65a1.51,1.51,0,0,1,1.51,1.51V122q0,13.32-7.35,21t-19.28,7.7a29.1,29.1,0,0,1-12.75-3,25,25,0,0,1-9.35-7.4,1.53,1.53,0,0,1-.29-.9h0a1.5,1.5,0,0,1,2.62-1,26.31,26.31,0,0,0,6.74,5.41,25.76,25.76,0,0,0,13,3.67q10.1,0,16.53-6.83T64.08,122v-2.54a1.51,1.51,0,0,0-2.69-.94,24.75,24.75,0,0,1-7.07,5.9,27.55,27.55,0,0,1-13.78,3.78,26.4,26.4,0,0,1-19.29-8,26.78,26.78,0,0,1,0-38.24,26.41,26.41,0,0,1,19.29-8,27.47,27.47,0,0,1,14,3.74,23.61,23.61,0,0,1,6.89,5.88,1.5,1.5,0,0,0,2.7-.91v-6A1.51,1.51,0,0,1,65.59,75.18Zm-48.7,25.95A23,23,0,0,0,24,118,22.9,22.9,0,0,0,40.71,125,22.36,22.36,0,0,0,57.31,118a24,24,0,0,0,0-33.64,22.36,22.36,0,0,0-16.6-7.06A22.9,22.9,0,0,0,24,84.31,23,23,0,0,0,16.89,101.13Z" transform="translate(-0.97 -32.16)" style="fill:#2b357a"/></svg>